<svg width="107" height="41" viewBox="0 0 107 41" fill="none" xmlns="http://www.w3.org/2000/svg">
<path fill-rule="evenodd" clip-rule="evenodd" d="M0.8925 35.9603V27.3605C0.898274 27.3856 0.905459 27.4174 0.914002 27.4553C1.03862 28.0079 1.45253 29.8433 2 30.461C2.08962 30.5596 2.16362 30.6501 2.23134 30.733C2.61698 31.2049 2.79873 31.4273 4.5 31.461C6.5 31.5005 6.63 31.5005 8.025 31.5005C9.75 31.5005 11.28 31.0955 12.615 30.2855C13.965 29.4755 15.03 28.343 15.81 26.888C16.59 25.418 16.98 23.7006 16.98 21.7356C16.98 19.7706 16.5975 18.0606 15.8325 16.6056C15.0825 15.1356 14.04 13.9956 12.705 13.1856C11.7233 12.572 11.2587 12.4704 10.2623 12.2523C9.91896 12.1772 9.5125 12.0882 9 11.9597C7.86389 11.6749 6.80397 11.6924 5.50963 11.7137C5.14634 11.7197 4.76459 11.726 4.3575 11.726C2.5 11.726 0 12.3437 0 13.4611C0 13.6021 0.0106863 13.8243 0.0230392 14.0811C0.0314783 14.2565 0.0406952 14.4481 0.047814 14.6411L0 14.6073V15.9531V35.9603H0.8925ZM12.2775 18.2706C12.8325 19.2456 13.11 20.4006 13.11 21.7356C13.11 23.0706 12.8325 24.2256 12.2775 25.2005C11.7375 26.1755 11.0175 26.933 10.1175 27.473C9.2175 27.998 8.2425 28.2605 7.1925 28.2605C6.92021 28.2605 6.68224 28.2717 6.45845 28.2822C5.73294 28.3161 5.1564 28.3431 4.0425 27.961C3.0975 27.421 2.3475 26.153 1.7925 25.1781C1.2375 24.1881 0.96 23.0406 0.96 21.7356C0.96 21.2487 0.865011 20.7848 0.774724 20.3439C0.622998 19.603 0.484552 18.9268 0.8325 18.3156C0.908379 18.1802 0.988204 18.0335 1.07189 17.8797C1.60032 16.9086 2.28278 15.6543 3.09859 15.1881H7.1925C8.2425 15.1881 9.2175 15.4581 10.1175 15.9981C11.0175 16.5381 11.7375 17.2956 12.2775 18.2706Z" fill="#333333"/>
<path d="M0 13.9609C0 13.4087 0.447715 12.9609 1 12.9609H3C3.55228 12.9609 4 13.4087 4 13.9609V39.9609C4 40.5132 3.55228 40.9609 3 40.9609H1C0.447715 40.9609 0 40.5132 0 39.9609V13.9609Z" fill="#333333"/>
<path d="M75.0631 30.9603C74.5108 30.9603 74.0631 30.5126 74.0631 29.9603V13.4878C74.0631 12.9355 74.5108 12.4878 75.0631 12.4878H79.9031C80.4554 12.4878 80.9031 12.9355 80.9031 13.4878V29.9603C80.9031 30.5126 80.4554 30.9603 79.9031 30.9603H75.0631ZM77.5731 8.68531C76.4931 8.68531 75.5781 8.31031 74.8281 7.56031C74.0781 6.79531 73.7031 5.88781 73.7031 4.83781C73.7031 3.78781 74.0781 2.88031 74.8281 2.11531C75.5931 1.33531 76.5081 0.945312 77.5731 0.945312C78.2781 0.945312 78.9231 1.12531 79.5081 1.48531C80.0931 1.83031 80.5656 2.29531 80.9256 2.88031C81.2856 3.46531 81.4656 4.11781 81.4656 4.83781C81.4656 5.88781 81.0831 6.79531 80.3181 7.56031C79.5531 8.31031 78.6381 8.68531 77.5731 8.68531Z" fill="#00B33E"/>
<path d="M33.8709 21.8033C33.8709 23.7383 34.2834 25.2833 35.1084 26.4383C35.9484 27.5783 37.2309 28.1483 38.9559 28.1483C40.6959 28.1483 41.9784 27.5783 42.8034 26.4383C43.6284 25.2833 44.0409 23.7383 44.0409 21.8033V13.4883C44.0409 12.936 44.4887 12.4883 45.0409 12.4883H46.9109C47.4632 12.4883 47.9109 12.936 47.9109 13.4883V22.3433C47.9109 24.1433 47.5584 25.7333 46.8534 27.1133C46.1634 28.4933 45.1509 29.5733 43.8159 30.3533C42.4959 31.1183 40.8759 31.5008 38.9559 31.5008C37.0509 31.5008 35.4309 31.1183 34.0959 30.3533C32.7759 29.5733 31.7634 28.4933 31.0584 27.1133C30.3684 25.7333 30.0234 24.1433 30.0234 22.3433V13.4883C30.0234 12.936 30.4712 12.4883 31.0234 12.4883H32.8709C33.4232 12.4883 33.8709 12.936 33.8709 13.4883V21.8033Z" fill="#333333"/>
<path d="M24.5625 29.96C24.5625 30.5123 24.1148 30.96 23.5625 30.96H21.625C21.0727 30.96 20.625 30.5123 20.625 29.96V0.999999C20.625 0.447714 21.0727 0 21.625 0H23.5625C24.1148 0 24.5625 0.447715 24.5625 1V29.96Z" fill="#333333"/>
<path fill-rule="evenodd" clip-rule="evenodd" d="M84.0004 30.9729C84.0002 30.9729 84 30.9731 84 30.9733V30.9733C84 30.9735 84.0002 30.9737 84.0004 30.9737H90.8396C90.8398 30.9737 90.84 30.9735 90.84 30.9733V30.9733C90.84 30.9731 90.8398 30.9729 90.8396 30.9729H84.0004ZM95.4062 16.0461C95.4062 16.5695 95.8275 16.9693 96.307 17.1792C96.6286 17.3199 96.91 17.5374 97.2075 17.8562C97.8375 18.5162 98.1525 19.5062 98.1525 20.8262V29.9737C98.1525 30.526 98.6002 30.9737 99.1525 30.9737H104.015C104.567 30.9737 105.015 30.526 105.015 29.9737V19.7012C105.015 17.8562 104.618 16.3712 103.823 15.2462C103.028 14.1062 102.015 13.2737 100.785 12.7487C99.555 12.2237 98.295 11.9612 97.005 11.9612C96.5817 11.9612 96.3366 11.9611 96.0876 11.9609V11.9609C95.7113 11.9607 95.4062 12.2657 95.4062 12.642V16.0461Z" fill="#00B33E"/>
<path fill-rule="evenodd" clip-rule="evenodd" d="M106.416 30.9609C106.419 30.9609 106.422 30.9637 106.422 30.9672V30.9672C106.422 30.9707 106.419 30.9734 106.416 30.9734H99.5881C99.5847 30.9734 99.5819 30.9707 99.5819 30.9672V30.9672C99.5819 30.9637 99.5847 30.9609 99.5881 30.9609H106.416ZM96 16.4743C96 16.7457 95.7714 16.9609 95.5 16.9609V16.9609C94.48 16.9609 93.8444 17.1809 93.2144 17.8559C92.5844 18.5159 92.2694 19.5059 92.2694 20.8259V29.9734C92.2694 30.5257 91.8216 30.9734 91.2694 30.9734H86.4069C85.8546 30.9734 85.4069 30.5257 85.4069 29.9734V19.7009C85.4069 17.8559 85.8044 16.3709 86.5994 15.2459C87.3944 14.1059 88.4069 13.2734 89.6369 12.7484C90.8669 12.2234 92.1269 11.9609 93.4169 11.9609C94.0781 11.9609 94.711 12.0334 95.3155 12.1784C95.7305 12.278 96 12.6642 96 13.0909V16.4743Z" fill="#00B33E"/>
<path d="M97.0019 16.9599H94.5019H93.5019C93.5019 16.9599 91.6332 12.1047 93 11.96C94.3669 11.8153 97 11.7462 98 11.998C99 12.2498 97.0019 16.9599 97.0019 16.9599Z" fill="#00B33E"/>
<path fill-rule="evenodd" clip-rule="evenodd" d="M66.7753 21.2486C66.7937 21.3192 66.8119 21.39 66.83 21.4609C67.0921 22.4855 67.3325 23.5325 67.55 24.48C68.4862 28.5586 68.9993 30.7934 68.9993 21.4609C68.9993 21.3097 68.9977 21.1608 68.9946 21.0143C68.9306 17.9637 68.2062 15.9426 67.1023 14.6029C66.9711 14.4438 66.8346 14.2942 66.6933 14.1537C64.6818 12.1548 61.6813 11.984 59.0469 11.9609L64.9278 16.4609C65.6247 17.2765 66.2435 19.2004 66.7753 21.2486Z" fill="#333333"/>
<path fill-rule="evenodd" clip-rule="evenodd" d="M65.41 15.9542V15.0284L65.8318 15.9609C66.1748 16.4664 66.5467 16.9016 66.911 17.3279C67.8004 18.3687 68.6443 19.3562 68.9114 21.1833V30.6242V30.9617V31.4792C68.882 31.6592 68.8548 31.8326 68.8293 32H65.4197C65.4404 31.7496 65.4507 31.4935 65.4507 31.2317V30.9617V30.6242V27.3617C65.3421 27.7367 65.0232 28.2542 64.4939 28.9142C63.9782 29.5742 63.2657 30.1742 62.3564 30.7142C61.4607 31.2392 60.4021 31.5017 59.1807 31.5017C57.6336 31.5017 56.2289 31.0967 54.9668 30.2867C53.7182 29.4767 52.7207 28.3442 51.9743 26.8892C51.2414 25.4192 50.875 23.7017 50.875 21.7367C50.875 19.7717 51.2414 18.0617 51.9743 16.6067C52.7207 15.1367 53.7182 13.9967 54.9668 13.1867C56.2289 12.3617 57.6336 11.9492 59.1807 11.9492C60.3886 11.9492 61.4336 12.1892 62.3157 12.6692C63.2114 13.1492 63.9239 13.7042 64.4532 14.3342C64.9961 14.9642 65.315 15.5042 65.41 15.9542ZM54.3764 21.7367C54.3764 23.0717 54.6411 24.2267 55.1704 25.2017C55.6996 26.1767 56.385 26.9342 57.2264 27.4742C58.0814 27.9992 58.9907 28.2617 59.9543 28.2617C60.9857 28.2617 61.9086 27.9917 62.7229 27.4517C63.5371 26.9117 64.1818 26.1542 64.6568 25.1792C65.1318 24.1892 65.3693 23.0417 65.3693 21.7367C65.3693 20.4317 65.1318 19.2917 64.6568 18.3167C64.1818 17.3267 63.5371 16.5617 62.7229 16.0217C61.9086 15.4667 60.9857 15.1892 59.9543 15.1892C58.9907 15.1892 58.0814 15.4592 57.2264 15.9992C56.385 16.5392 55.6996 17.2967 55.1704 18.2717C54.6411 19.2467 54.3764 20.4017 54.3764 21.7367Z" fill="#333333"/>
<path fill-rule="evenodd" clip-rule="evenodd" d="M55.0728 30C54.8835 30 54.8073 30.2345 54.9661 30.3375C56.2282 31.1475 57.6329 31.5525 59.18 31.5525C60.4014 31.5525 61.46 31.29 62.3557 30.765C62.7426 30.5353 62.5659 30 62.116 30H55.0728ZM66.125 30C65.7522 30 65.45 30.3022 65.45 30.675V31.0125V31.2825C65.45 32.4825 65.2329 33.5625 64.7986 34.5225C64.3643 35.4825 63.7332 36.24 62.9054 36.795C62.0775 37.365 61.0664 37.65 59.8721 37.65C58.6507 37.65 57.66 37.4925 56.9 37.1775C56.14 36.8625 55.5361 36.48 55.0882 36.03C55.0016 35.9433 54.9186 35.8574 54.839 35.7725C54.3988 35.3026 53.6268 35.2397 53.1842 35.7075L52.2691 36.6745C51.9522 37.0094 51.8993 37.5232 52.1957 37.8763C52.5944 38.3514 53.07 38.7785 53.6225 39.1575C54.4232 39.7125 55.3529 40.14 56.4114 40.44C57.4836 40.74 58.6779 40.89 59.9943 40.89C61.6636 40.89 63.17 40.53 64.5136 39.81C65.8571 39.105 66.9225 38.055 67.7096 36.66C68.5104 35.28 68.9107 33.6455 68.9107 31.6055V31.0125V30.675C68.9107 30.3022 68.6085 30 68.2357 30H66.125Z" fill="#333333"/>
</svg>
